<svg width="1440" height="320" viewBox="0 0 1440 320" fill="none" xmlns="http://www.w3.org/2000/svg">
<path d="M-24 128L25.9333 133.3C75.8667 139 175.733 149 275.6 160C375.467 171 475.333 181 575.2 170.7C675.067 160 774.933 128 874.8 138.7C974.667 149 1074.53 203 1174.4 234.7C1274.27 267 1374.13 277 1424.07 282.7L1474 288V320H1424.07C1374.13 320 1274.27 320 1174.4 320C1074.53 320 974.667 320 874.8 320C774.933 320 675.067 320 575.2 320C475.333 320 375.467 320 275.6 320C175.733 320 75.8667 320 25.9333 320H-24V128Z" fill="#EDF1F2"/>
</svg>
